<svg xmlns="http://www.w3.org/2000/svg" version="1.1" xmlns:xlink="http://www.w3.org/1999/xlink" xmlns:svgjs="http://svgjs.com/svgjs" width="48" height="48"><svg width="48" height="48" viewBox="0 0 12.7 12.7" version="1.1" id="SvgjsSvg1014" inkscape:version="1.2.2 (732a01da63, 2022-12-09)" sodipodi:docname="Logo.svg" inkscape:export-filename="Pictures\Carince Logo\Logo_SqBG.svg" inkscape:export-xdpi="96" inkscape:export-ydpi="96" xmlns:inkscape="http://www.inkscape.org/namespaces/inkscape" xmlns:sodipodi="http://sodipodi.sourceforge.net/DTD/sodipodi-0.dtd" xmlns="http://www.w3.org/2000/svg" xmlns:svg="http://www.w3.org/2000/svg">
  <sodipodi:namedview id="SvgjsSodipodi:namedview1013" pagecolor="#ffffff" bordercolor="#000000" borderopacity="0.25" inkscape:showpageshadow="2" inkscape:pageopacity="0.0" inkscape:pagecheckerboard="0" inkscape:deskcolor="#d1d1d1" inkscape:document-units="mm" showgrid="false" inkscape:zoom="11.313709" inkscape:cx="9.0598056" inkscape:cy="19.357048" inkscape:window-width="1920" inkscape:window-height="1017" inkscape:window-x="1272" inkscape:window-y="-8" inkscape:window-maximized="1" inkscape:current-layer="layer1"></sodipodi:namedview>
  <defs id="SvgjsDefs1012"></defs>
  <g inkscape:label="Logo" inkscape:groupmode="layer" id="SvgjsG1011">
    <g id="SvgjsG1010" transform="matrix(1.3355413,0,0,1.3355413,-2.1306873,-2.0275587)" style="fill:#ffffff" inkscape:label="Text">
      <g aria-label="car" id="SvgjsG1009" style="font-size:6.32077px;font-family:Ebrima;-inkscape-font-specification:Ebrima;stroke-width:1.18514" inkscape:label="nce">
        <path d="m 3.3065442,5.4170951 q -0.4866993,0 -0.8722663,-0.2149062 Q 2.048711,4.980962 1.827484,4.5890743 1.6125779,4.1971865 1.6125779,3.7041665 q 0,-0.49302 0.2149061,-0.878587 0.221227,-0.3918877 0.6067939,-0.6131147 0.385567,-0.2212269 0.8722663,-0.2212269 0.5372654,0 0.9228324,0.2338685 0.3855669,0.2275477 0.5562277,0.6510393 L 4.0271119,3.1921841 Q 3.8248473,2.7623718 3.3065442,2.7623718 q -0.3792462,0 -0.6257562,0.2591516 -0.2401893,0.2591515 -0.2401893,0.6826431 0,0.4298123 0.2401893,0.6889639 0.24651,0.2591516 0.6257562,0.2591516 0.5246239,0 0.7584923,-0.4550955 L 4.8172081,4.5258666 Q 4.6086227,4.9493581 4.2230558,5.1832266 3.8374888,5.4170951 3.3065442,5.4170951 Z" style="font-weight:bold;font-family:'Google Sans';-inkscape-font-specification:'Google Sans Bold';fill:#000000" id="SvgjsPath1008"></path>
        <path d="m 6.3658018,5.4170951 q -0.5119823,0 -0.8406623,-0.2970762 Q 5.1964594,4.816622 5.1964594,4.3299227 q 0,-0.3223593 0.1706608,-0.5688693 0.1706608,-0.24651 0.467737,-0.3792462 0.2970762,-0.1327361 0.65736,-0.1327361 0.4993408,0 0.853304,0.1453777 v -0.139057 q 0,-0.2654723 -0.2022647,-0.4298123 -0.1959438,-0.16434 -0.5309446,-0.16434 -0.2275478,0 -0.4424539,0.1074531 Q 5.9612726,2.8698249 5.8222156,3.0404857 L 5.291271,2.6233149 q 0.2338685,-0.303397 0.5878316,-0.467737 0.3539631,-0.16434 0.7711339,-0.16434 0.73953,0 1.125097,0.3413216 0.385567,0.3413215 0.385567,0.9986816 V 5.3159628 H 7.3455212 v -0.32868 H 7.294955 Q 7.1495773,5.1769059 6.909388,5.2970005 6.6755196,5.4170951 6.3658018,5.4170951 Z M 6.5617457,4.7723766 q 0.3602839,0 0.5688693,-0.2275477 Q 7.3455212,4.3109604 7.3455212,4.0012427 7.0231619,3.8495442 6.6691988,3.8495442 q -0.6447185,0 -0.6447185,0.4803785 0,0.1959439 0.1390569,0.3223593 0.1390569,0.1200946 0.3982085,0.1200946 z" style="font-weight:bold;font-family:'Google Sans';-inkscape-font-specification:'Google Sans Bold';fill:#000000" id="SvgjsPath1007"></path>
        <path d="m 8.9257188,2.0923702 h 0.7774547 v 0.4298123 h 0.050566 q 0.1200946,-0.2275477 0.3729255,-0.3729254 0.252831,-0.1516984 0.556228,-0.1516984 0.221227,0 0.404529,0.069528 V 2.895108 Q 10.916761,2.8319 10.796667,2.806617 10.682893,2.775013 10.550157,2.775013 q -0.366605,0 -0.5815113,0.2654724 -0.214906,0.2654726 -0.214906,0.6700019 V 5.3159628 H 8.9257188 Z" style="font-weight:bold;font-family:'Google Sans';-inkscape-font-specification:'Google Sans Bold';fill:#000000" id="SvgjsPath1006"></path>
      </g>
      <g aria-label="nce" id="SvgjsG1005" style="font-size:5.7509px;font-family:Ebrima;-inkscape-font-specification:Ebrima;stroke-width:1.07828" inkscape:label="i">
        <path d="M 1.5968761,7.5293519 H 2.3042368 V 7.8974095 H 2.350244 Q 2.4825147,7.6846262 2.7240525,7.5638573 2.9655903,7.4373375 3.2473844,7.4373375 q 0.5290827,0 0.8051259,0.3220504 0.2760432,0.3220504 0.2760432,0.8798877 V 10.462311 H 3.5751857 V 8.73129 q 0,-0.2817941 -0.1437725,-0.4370684 -0.1437725,-0.1552743 -0.402563,-0.1552743 -0.3047977,0 -0.4945774,0.2357869 Q 2.350244,8.6105211 2.350244,8.9670768 V 10.462311 H 1.5968761 Z" style="font-weight:bold;font-family:'Google Sans';-inkscape-font-specification:'Google Sans Bold';fill:#000000" id="SvgjsPath1004"></path>
        <path d="m 6.4218865,10.554325 q -0.4428193,0 -0.7936242,-0.19553 Q 5.2774574,10.157513 5.0761759,9.8009573 4.8806453,9.4444015 4.8806453,8.9958313 q 0,-0.4485701 0.1955306,-0.799375 Q 5.2774574,7.8399005 5.6282623,7.638619 5.9790672,7.4373375 6.4218865,7.4373375 q 0.4888265,0 0.8396314,0.2127833 0.3508048,0.2070324 0.5060791,0.5923427 L 7.0774891,8.5300085 Q 6.8934603,8.1389473 6.4218865,8.1389473 q -0.345054,0 -0.5693391,0.2357869 -0.2185342,0.2357869 -0.2185342,0.6210971 0,0.3910612 0.2185342,0.6268481 0.2242851,0.2357869 0.5693391,0.2357869 0.4773247,0 0.690108,-0.4140648 l 0.684357,0.2990468 Q 7.6065718,10.128759 7.255767,10.341542 6.9049621,10.554325 6.4218865,10.554325 Z" style="font-weight:bold;font-family:'Google Sans';-inkscape-font-specification:'Google Sans Bold';fill:#000000" id="SvgjsPath1003"></path>
        <path d="m 9.6826516,10.554325 q -0.4370684,0 -0.7878733,-0.201281 Q 8.5439734,10.151762 8.3426919,9.8009573 8.1471613,9.4444015 8.1471613,9.0015822 q 0,-0.4198156 0.1955306,-0.7763714 0.1955306,-0.3623067 0.5405846,-0.57509 0.345054,-0.2127833 0.7706206,-0.2127833 0.4543209,0 0.7821219,0.1955306 0.327802,0.1955306 0.494578,0.5348337 0.172527,0.3393031 0.172527,0.7533678 0,0.1322707 -0.01725,0.2530396 H 8.8832765 q 0.057509,0.3508049 0.2760432,0.5348337 0.2242851,0.1782779 0.5348337,0.1782779 0.2587904,0 0.4428196,-0.1092671 0.189779,-0.115018 0.299046,-0.3047977 l 0.609596,0.2990468 Q 10.597045,10.554325 9.6826516,10.554325 Z M 10.37851,8.6392756 Q 10.367009,8.501254 10.274994,8.3689833 10.188731,8.2309617 10.027706,8.1446982 9.8724313,8.0526838 9.659648,8.0526838 q -0.2702923,0 -0.4658229,0.1610252 -0.1897797,0.1552743 -0.2760432,0.4255666 z" style="font-weight:bold;font-family:'Google Sans';-inkscape-font-specification:'Google Sans Bold';fill:#000000" id="SvgjsPath1002"></path>
      </g>
      <g aria-label="i" transform="rotate(90)" id="SvgjsG1001" style="font-size:13.0797px;font-family:Ebrima;-inkscape-font-specification:Ebrima;stroke-width:2.45242" inkscape:label="car">
        <path d="m 6.4272163,-9.5022079 q -0.3269925,0 -0.5624271,-0.2354346 -0.2354346,-0.2354346 -0.2354346,-0.5624275 0,-0.340072 0.2354346,-0.562427 0.2354346,-0.235434 0.5624271,-0.235434 0.3400722,0 0.5624271,0.235434 0.2354346,0.222355 0.2354346,0.562427 0,0.3269929 -0.2354346,0.5624275 -0.2223549,0.2354346 -0.5624271,0.2354346 z M 5.8778689,-8.272716 h 1.1117745 v 6.6706472 H 5.8778689 Z" style="font-family:'Google Sans';-inkscape-font-specification:'Google Sans';fill:#000000" id="SvgjsPath1000"></path>
      </g>
    </g>
  </g>
</svg><style>@media (prefers-color-scheme: light) { :root { filter: none; } }
@media (prefers-color-scheme: dark) { :root { filter: invert(100%); } }
</style></svg>