<svg
   viewBox="0 0 12.7 12.7"
   xmlns="http://www.w3.org/2000/svg"
   xmlns:svg="http://www.w3.org/2000/svg">
  <path d="m 10.559904,6.5562541 q 0,-0.436712 0.314432,-0.7511446 0.314433,-0.3144326 0.751146,-0.3144326 0.45418,0 0.751144,0.3144326 0.314432,0.3144326 0.314432,0.7511446 0,0.4541805 -0.314432,0.7511446 -0.296964,0.3144327 -0.751144,0.3144327 -0.436713,0 -0.751146,-0.3144327 Q 10.559904,7.0104346 10.559904,6.5562541 Z M 8.9178666,5.822578 V 7.3073987 H 0.00894175 V 5.822578 Z m 1.8830274,6.2456 q -0.583723,0 -1.0522375,-0.268819 Q 9.280142,11.530539 9.0113223,11.062025 8.7501831,10.58583 8.7501831,9.9944261 q 0,-0.5606811 0.2611392,-1.0368761 0.2611392,-0.4838755 0.721973,-0.7680564 0.4608337,-0.2841809 1.0291957,-0.2841809 0.606764,0 1.044556,0.2611392 0.437793,0.2611392 0.660529,0.7142925 0.230417,0.4531533 0.230417,1.0061538 0,0.1766528 -0.02304,0.3379448 H 9.7332953 q 0.076806,0.468514 0.3686667,0.714293 0.299542,0.238097 0.714293,0.238097 0.345625,0 0.591404,-0.145931 0.253457,-0.153611 0.399388,-0.40707 l 0.814141,0.39939 q -0.599084,1.044556 -1.820294,1.044556 z M 11.730241,9.5105507 Q 11.714883,9.3262171 11.591992,9.1495641 11.476788,8.9652306 11.261728,8.8500221 11.054352,8.7271336 10.770172,8.7271336 q -0.360987,0 -0.622126,0.2150558 Q 9.8945872,9.1495647 9.7793787,9.5105512 Z M 6.4460073,12.068178 q -0.5914034,0 -1.0599179,-0.261138 Q 4.917575,11.538219 4.6487553,11.062025 4.3876161,10.58583 4.3876161,9.9867455 q 0,-0.5990839 0.2611392,-1.0675983 0.2688197,-0.476195 0.7373341,-0.7450148 0.4685145,-0.2688197 1.0599179,-0.2688197 0.652848,0 1.1213625,0.2841809 0.4685143,0.2765003 0.6758895,0.7910981 L 7.3215917,9.3646199 Q 7.0758136,8.8423416 6.4460073,8.8423416 q -0.4608338,0 -0.7603758,0.3149031 Q 5.39377,9.4721478 5.39377,9.9867455 q 0,0.5222785 0.2918615,0.8371815 0.299542,0.314903 0.7603758,0.314903 0.6374869,0 0.9216678,-0.553 l 0.913987,0.399389 q -0.2534586,0.514598 -0.7219729,0.798779 -0.4685144,0.28418 -1.1136819,0.28418 z M 0.00200668,8.0282017 H 0.94671611 V 8.5197579 H 1.0081606 Q 1.1848136,8.235577 1.5073973,8.0742851 1.829981,7.9053127 2.2063287,7.9053127 q 0.7066118,0 1.0752789,0.4301116 0.3686671,0.4301116 0.3686671,1.1751264 V 11.94529 H 2.6441209 V 9.6334397 q 0,-0.3763477 -0.1920142,-0.5837229 -0.1920141,-0.2073752 -0.5376395,-0.2073752 -0.4070699,0 -0.6605285,0.3149031 -0.2457781,0.3149031 -0.2457781,0.791098 V 11.94529 H 0.00200668 Z M 9.7899788,0.76688812 H 10.828302 V 1.3409202 h 0.06753 q 0.160391,-0.3038994 0.498057,-0.49805728 0.337666,-0.20259948 0.742866,-0.20259948 0.295457,0 0.540265,0.0928575 V 1.8389776 q -0.227925,-0.084417 -0.388316,-0.1181834 -0.151949,-0.042208 -0.329224,-0.042208 -0.489616,0 -0.776632,0.3545493 -0.287016,0.3545496 -0.287016,0.8948152 V 5.0721292 H 9.7899788 Z M 6.3711039,5.2071955 q -0.6837735,0 -1.1227392,-0.3967575 -0.4389659,-0.4051991 -0.4389659,-1.0552061 0,-0.4305242 0.2279246,-0.7597485 Q 5.2652479,2.6662592 5.6620055,2.4889845 6.058763,2.3117099 6.5399369,2.3117099 q 0.6668903,0 1.1396227,0.194158 V 2.3201515 q 0,-0.3545492 -0.2701328,-0.5740321 -0.2616911,-0.2194828 -0.7090985,-0.2194828 -0.3038995,0 -0.5909154,0.143508 Q 5.8308385,1.805211 5.6451221,2.0331355 L 4.9360236,1.4759867 Q 5.2483647,1.0707875 5.721097,0.85130461 6.1938294,0.63182175 6.7509782,0.63182175 q 0.9876729,0 1.5026135,0.45584905 0.5149407,0.455849 0.5149407,1.3337806 V 5.0721292 H 7.6795596 V 4.6331635 H 7.6120267 Q 7.4178687,4.8864129 7.097086,5.0468042 6.7847451,5.2071955 6.3711039,5.2071955 Z M 6.6327951,4.3461473 q 0.481174,0 0.7597484,-0.3038993 Q 7.6795596,3.729907 7.6795596,3.3162662 7.2490355,3.1136666 6.7763031,3.1136666 q -0.8610481,0 -0.8610481,0.6415653 0,0.2616912 0.1857162,0.4305242 0.1857162,0.1603912 0.5318239,0.1603912 z M 2.285339,5.2071955 q -0.650007,0 -1.1649476,-0.2870161 Q 0.60545085,4.6247218 0.30999306,4.1013396 0.02297708,3.5779572 0.02297708,2.9195086 q 0,-0.6584485 0.28701598,-1.1733892 Q 0.60545085,1.2227372 1.1203914,0.92727942 1.635332,0.63182175 2.285339,0.63182175 q 0.7175402,0 1.2324808,0.31234104 Q 4.0327603,1.2480621 4.2606849,1.8136527 L 3.247687,2.235735 Q 2.9775542,1.6617029 2.285339,1.6617029 q -0.5064989,0 -0.8357232,0.3461077 -0.3207827,0.3461075 -0.3207827,0.911698 0,0.5740321 0.3207827,0.9201398 0.3292243,0.3461077 0.8357232,0.3461077 0.7006569,0 1.0129978,-0.6077989 L 4.3028931,4.0169231 Q 4.0243187,4.5825135 3.5093781,4.8948545 2.9944375,5.2071955 2.285339,5.2071955 Z" />
</svg>
